/vscmnt/brussel_pixiu_data/_data_brussel/112/vsc11236/PredSimResults/SUBJ09_Dhondt2024_3seg/weighted/worker_01.mot
version=1
nRows=4
nColumns=124
inDegrees=yes
endheader
                time	         pelvis_tilt	         pelvis_list	     pelvis_rotation	           pelvis_tx	           pelvis_ty	           pelvis_tz	       hip_flexion_r	     hip_adduction_r	      hip_rotation_r	        knee_angle_r	       ankle_angle_r	    subtalar_angle_r	         mtp_angle_r	       hip_flexion_l	     hip_adduction_l	      hip_rotation_l	        knee_angle_l	       ankle_angle_l	    subtalar_angle_l	         mtp_angle_l	    lumbar_extension	      lumbar_bending	     lumbar_rotation	          arm_flex_r	           arm_add_r	           arm_rot_r	        elbow_flex_r	          arm_flex_l	           arm_add_l	           arm_rot_l	        elbow_flex_l	glut_med1_r/activation	glut_med2_r/activation	glut_med3_r/activation	glut_min1_r/activation	glut_min2_r/activation	glut_min3_r/activation	semimem_r/activation	semiten_r/activation	bifemlh_r/activation	bifemsh_r/activation	    sar_r/activation	add_long_r/activation	add_brev_r/activation	add_mag1_r/activation	add_mag2_r/activation	add_mag3_r/activation	    tfl_r/activation	   pect_r/activation	   grac_r/activation	glut_max1_r/activation	glut_max2_r/activation	glut_max3_r/activation	iliacus_r/activation	  psoas_r/activation	quad_fem_r/activation	    gem_r/activation	   peri_r/activation	rect_fem_r/activation	vas_med_r/activation	vas_int_r/activation	vas_lat_r/activation	med_gas_r/activation	lat_gas_r/activation	 soleus_r/activation	tib_post_r/activation	flex_dig_r/activation	flex_hal_r/activation	tib_ant_r/activation	per_brev_r/activation	per_long_r/activation	per_tert_r/activation	ext_dig_r/activation	ext_hal_r/activation	glut_med1_l/activation	glut_med2_l/activation	glut_med3_l/activation	glut_min1_l/activation	glut_min2_l/activation	glut_min3_l/activation	semimem_l/activation	semiten_l/activation	bifemlh_l/activation	bifemsh_l/activation	    sar_l/activation	add_long_l/activation	add_brev_l/activation	add_mag1_l/activation	add_mag2_l/activation	add_mag3_l/activation	    tfl_l/activation	   pect_l/activation	   grac_l/activation	glut_max1_l/activation	glut_max2_l/activation	glut_max3_l/activation	iliacus_l/activation	  psoas_l/activation	quad_fem_l/activation	    gem_l/activation	   peri_l/activation	rect_fem_l/activation	vas_med_l/activation	vas_int_l/activation	vas_lat_l/activation	med_gas_l/activation	lat_gas_l/activation	 soleus_l/activation	tib_post_l/activation	flex_dig_l/activation	flex_hal_l/activation	tib_ant_l/activation	per_brev_l/activation	per_long_l/activation	per_tert_l/activation	ext_dig_l/activation	ext_hal_l/activation	 ercspn_r/activation	 ercspn_l/activation	 intobl_r/activation	 intobl_l/activation	 extobl_r/activation	 extobl_l/activation	
          1.10497181	         -2.92885125	         -2.10256555	          1.77256328	          1.31491645	          0.98948731	         -0.00182693	         23.30898323	          3.89436138	          1.54974926	         -4.56584196	          6.37584589	         -3.02184264	          0.18044883	        -14.07688497	          0.05716589	          7.11437508	         -7.75530585	          6.13676663	          7.28320793	         16.63585655	         -3.77883238	          1.76649900	         -1.59896767	         -8.47062813	        -13.45457713	         13.48987366	         31.61912590	          0.38834384	        -13.66967224	         19.04640646	         45.60978952	          0.02065321	          0.01402172	          0.01000145	          0.01402281	          0.01402228	          0.01000187	          0.04483778	          0.06807347	          0.22487219	          0.01000065	          0.01000105	          0.10850424	          0.15211302	          0.13857387	          0.13501497	          0.08485873	          0.01000104	          0.02317662	          0.03559052	          0.01185503	          0.03094640	          0.04171106	          0.01000027	          0.01000029	          0.01874823	          0.01000094	          0.01000034	          0.01131033	          0.07090388	          0.07227211	          0.06055763	          0.01000005	          0.01000013	          0.01000002	          0.01184165	          0.01184168	          0.01184162	          0.25255387	          0.16537542	          0.11884748	          0.12271477	          0.28032049	          0.04814867	          0.21565452	          0.11124263	          0.06590197	          0.29492614	          0.25092755	          0.16873658	          0.01000327	          0.01000080	          0.01000059	          0.04718034	          0.08463264	          0.01000023	          0.01000026	          0.01000039	          0.01000132	          0.01000072	          0.37757765	          0.01000132	          0.01000211	          0.01666499	          0.01188230	          0.01000230	          0.24646214	          0.43855953	          0.01181607	          0.01660535	          0.07334521	          0.27882541	          0.01000066	          0.01000066	          0.01000058	          0.32308277	          0.41041094	          0.34392896	          0.29826331	          0.38880394	          0.44621986	          0.01359166	          0.01000069	          0.13633098	          0.01602330	          0.01618905	          0.01513499	          0.01757718	          0.01000003	          0.03188739	          0.01000003	          0.06231326	          0.01000006	
          1.11602152	         -2.92340973	         -2.41812910	          1.87519158	          1.33054852	          0.98913927	         -0.00157564	         22.35488917	          4.46963972	          1.64694991	         -3.54027009	          5.47216416	         -3.17556424	          0.19660970	        -14.07775800	         -0.30948527	          6.87168285	         -9.30778672	          5.27063224	          7.75799648	         17.87352355	         -3.60322178	          2.23466109	         -1.67316419	         -8.84016363	        -13.44990086	         13.16246805	         31.06158784	         -0.10647464	        -13.69041741	         19.01895874	         46.59563488	          0.01744122	          0.01184138	          0.01000031	          0.01184203	          0.01184166	          0.01000261	          0.03786465	          0.05748674	          0.18989994	          0.01000007	          0.01000027	          0.09163013	          0.21125731	          0.19569973	          0.18334178	          0.07166181	          0.01000050	          0.02788971	          0.03005615	          0.01001203	          0.02613383	          0.08340940	          0.01000018	          0.01000010	          0.03128155	          0.19148373	          0.06270870	          0.01660618	          0.09306916	          0.09329631	          0.07951971	          0.01000015	          0.01000019	          0.01167281	          0.01000004	          0.01000023	          0.01000023	          0.28408505	          0.17230220	          0.10370905	          0.17288167	          0.31920000	          0.04066062	          0.19309936	          0.09394210	          0.05565285	          0.24905925	          0.21190319	          0.14249457	          0.01000122	          0.01000026	          0.01000014	          0.03984283	          0.07147064	          0.01855496	          0.01000061	          0.01000053	          0.01000134	          0.01000048	          0.31885699	          0.04906547	          0.01000421	          0.01407397	          0.01003514	          0.01000085	          0.20813224	          0.37035446	          0.01000027	          0.01402314	          0.06193852	          0.23546349	          0.01000063	          0.01000060	          0.01000051	          0.28973221	          0.37569972	          0.31958784	          0.28250029	          0.35955120	          0.42292060	          0.01147789	          0.01000147	          0.13169948	          0.01353136	          0.01367132	          0.01278121	          0.01484357	          0.01644943	          0.02692824	          0.01062430	          0.05262225	          0.01000045	
          1.12707124	         -2.91361193	         -2.74312069	          1.96317561	          1.34644278	          0.98878096	         -0.00133191	         21.39454540	          5.00015790	          1.76458865	         -3.03293495	          4.23768099	         -3.29883204	          0.21670372	        -13.99673737	         -0.68332818	          6.60590929	        -11.00723518	          4.23423362	          8.24060283	         19.14359570	         -3.40941517	          2.71793682	         -1.73849365	         -9.16489216	        -13.45703500	         12.98210251	         30.38278058	         -0.65262178	        -13.70443942	         18.98447179	         47.53903597	          0.01472876	          0.01000008	          0.03641337	          0.01000038	          0.01000012	          0.01000015	          0.03197602	          0.04854710	          0.16036654	          0.01966389	          0.01003495	          0.07738027	          0.25320692	          0.24266658	          0.15484015	          0.06051701	          0.01000014	          0.02356503	          0.16473924	          0.01000601	          0.02206961	          0.07043754	          0.01000050	          0.01402329	          0.19665430	          0.16170406	          0.05295622	          0.01402360	          0.07859508	          0.07878690	          0.06715284	          0.01419117	          0.01660514	          0.01000005	          0.01966342	          0.01661398	          0.01872569	          0.23990420	          0.18795862	          0.12247784	          0.14599505	          0.26955798	          0.07932343	          0.16306842	          0.07933217	          0.04699768	          0.21032544	          0.17894789	          0.12033374	          0.01173401	          0.01006193	          0.01184151	          0.03364646	          0.06035556	          0.04859592	          0.01189015	          0.01184403	          0.01184616	          0.01184456	          0.26926826	          0.04143649	          0.01002521	          0.01188612	          0.01184130	          0.01184217	          0.17576336	          0.31275663	          0.01184157	          0.01184275	          0.05230582	          0.21053705	          0.04016952	          0.03861823	          0.03663537	          0.24467283	          0.31728105	          0.28012746	          0.25833373	          0.30363400	          0.35714824	          0.01000002	          0.01000022	          0.12859626	          0.01142698	          0.01154516	          0.01079352	          0.01253509	          0.02239296	          0.02274035	          0.01815968	          0.04443840	          0.01402138	
          1.13812096	         -2.90076248	         -3.08997803	          2.03491542	          1.36250351	          0.98843656	         -0.00112862	         20.42382004	          5.44742244	          1.92358265	         -2.77454898	          2.72097350	         -3.40544897	          0.21521473	        -13.81786846	         -1.07360534	          6.30853280	        -12.86214130	          3.00816768	          8.71203120	         20.41264788	         -3.20463278	          3.23261271	         -1.79219181	         -9.42847440	        -13.48569672	         12.97091755	         29.57848133	         -1.23683485	        -13.70322590	         18.94243935	         48.43721683	          0.23557414	          0.21247646	          0.23971212	          0.20312358	          0.10108653	          0.22319918	          0.03564506	          0.04099744	          0.13542622	          0.01660592	          0.01184150	          0.06534605	          0.21382800	          0.20492699	          0.13075946	          0.05110550	          0.01182652	          0.01990069	          0.13911902	          0.01000022	          0.01863741	          0.05948312	          0.01184228	          0.01184255	          0.16607055	          0.13655600	          0.13795739	          0.01184268	          0.06637212	          0.06653411	          0.05670937	          0.01198417	          0.01402272	          0.01184159	          0.01660537	          0.01403026	          0.01581355	          0.37874347	          0.19192974	          0.10343050	          0.44064280	          0.37932664	          0.18570036	          0.22674871	          0.06699438	          0.03968857	          0.31149542	          0.15111790	          0.10161937	          0.01000193	          0.01000022	          0.01000014	          0.02841376	          0.05096913	          0.04103869	          0.01004118	          0.01000220	          0.01000424	          0.01000267	          0.22739387	          0.05636079	          0.01000111	          0.01003825	          0.01000104	          0.01000084	          0.14842856	          0.26411655	          0.01000013	          0.01000118	          0.04417119	          0.17779417	          0.03392239	          0.03261235	          0.03093786	          0.20662109	          0.26793725	          0.23656178	          0.21815759	          0.25641273	          0.30160436	          0.01000002	          0.02577915	          0.13479423	          0.01000012	          0.01000003	          0.01000012	          0.02227322	          0.03423919	          0.01966286	          0.01533547	          0.03752730	          0.01184082	
